<svg width="14" height="14" viewBox="0 0 14 14" fill="none" xmlns="http://www.w3.org/2000/svg">
<path d="M4.69755 0C3.55891 0 2.4669 0.452324 1.66176 1.25747C0.856621 2.06261 0.404297 3.15461 0.404297 4.29326V9.30205C0.404297 10.4407 0.856621 11.5327 1.66176 12.3378C2.4669 13.143 3.55891 13.5953 4.69755 13.5953H9.70635C10.845 13.5953 11.937 13.143 12.7421 12.3378C13.5473 11.5327 13.9996 10.4407 13.9996 9.30205V5.72434C13.9996 5.53457 13.9242 5.35257 13.79 5.21838C13.6558 5.08419 13.4738 5.0088 13.2841 5.0088H12.5685C12.3787 5.0088 12.1967 4.93341 12.0626 4.79922C11.9284 4.66503 11.853 4.48303 11.853 4.29326C11.853 3.15461 11.4007 2.06261 10.5955 1.25747C9.79037 0.452324 8.69836 0 7.55972 0H4.69755ZM4.69755 3.57771H7.55972C7.95327 3.57771 8.27526 3.89971 8.27526 4.29326C8.27526 4.6868 7.95327 5.0088 7.55972 5.0088H4.69755C4.304 5.0088 3.98201 4.6868 3.98201 4.29326C3.98201 3.89971 4.304 3.57771 4.69755 3.57771ZM4.69755 8.58651H9.70635C10.0999 8.58651 10.4219 8.9085 10.4219 9.30205C10.4219 9.6956 10.0999 10.0176 9.70635 10.0176H4.69755C4.304 10.0176 3.98201 9.6956 3.98201 9.30205C3.98201 8.9085 4.304 8.58651 4.69755 8.58651Z" fill="white"/>
</svg>
