<svg width="17" height="16" viewBox="0 0 17 16" fill="none" xmlns="http://www.w3.org/2000/svg">
<path d="M5.29486 0C2.75397 0 0.666016 2.08509 0.666016 4.62884V11.1131C0.666016 13.654 2.75111 15.7419 5.29486 15.7419H11.7791C14.32 15.7419 16.408 13.6568 16.408 11.1131V4.62956C16.408 2.08795 14.3229 0 11.7791 0H5.29486ZM5.29486 1.43109H11.7791C12.1992 1.43052 12.6153 1.51285 13.0035 1.67335C13.3917 1.83385 13.7445 2.06937 14.0415 2.36643C14.3386 2.66348 14.5741 3.01622 14.7346 3.40445C14.8951 3.79267 14.9774 4.20875 14.9769 4.62884V11.1131C14.9774 11.5332 14.8951 11.9493 14.7346 12.3375C14.5741 12.7257 14.3386 13.0785 14.0415 13.3755C13.7445 13.6726 13.3917 13.9081 13.0035 14.0686C12.6153 14.2291 12.1992 14.3114 11.7791 14.3109H5.29558C4.87542 14.3115 4.45927 14.2293 4.07096 14.0688C3.68265 13.9083 3.32982 13.6728 3.0327 13.3758C2.73557 13.0787 2.49998 12.7259 2.33943 12.3377C2.17889 11.9494 2.09654 11.5332 2.0971 11.1131V4.62956C2.09644 4.20941 2.1787 3.79325 2.33916 3.40494C2.49962 3.01663 2.73513 2.66381 3.03219 2.36668C3.32925 2.06955 3.68202 1.83396 4.0703 1.67342C4.45857 1.51287 4.87471 1.43052 5.29486 1.43109V1.43109ZM12.763 2.99669C12.6777 2.99631 12.5933 3.01282 12.5144 3.04527C12.4356 3.07771 12.364 3.12545 12.3037 3.18572C12.2435 3.246 12.1957 3.31762 12.1633 3.39644C12.1308 3.47526 12.1143 3.55973 12.1147 3.64497C12.1147 4.00561 12.4023 4.29326 12.763 4.29326C12.8483 4.29373 12.9328 4.27729 13.0117 4.24489C13.0906 4.21248 13.1623 4.16476 13.2227 4.10448C13.283 4.04419 13.3308 3.97255 13.3633 3.89367C13.3958 3.8148 13.4124 3.73027 13.412 3.64497C13.4124 3.55967 13.3958 3.47514 13.3633 3.39627C13.3308 3.3174 13.283 3.24575 13.2227 3.18547C13.1623 3.12519 13.0906 3.07746 13.0117 3.04506C12.9328 3.01266 12.8483 2.99622 12.763 2.99669V2.99669ZM8.53698 3.57771C6.17569 3.57771 4.24373 5.50968 4.24373 7.87097C4.24373 10.2323 6.17569 12.1642 8.53698 12.1642C10.8983 12.1642 12.8302 10.2323 12.8302 7.87097C12.8302 5.50968 10.8983 3.57771 8.53698 3.57771ZM8.53698 5.0088C10.1276 5.0088 11.3992 6.28032 11.3992 7.87097C11.3992 9.46162 10.1276 10.7331 8.53698 10.7331C6.94633 10.7331 5.67481 9.46162 5.67481 7.87097C5.67481 6.28032 6.94633 5.0088 8.53698 5.0088Z" fill="white"/>
</svg>
