<svg width="16" height="16" viewBox="0 0 16 16" fill="none" xmlns="http://www.w3.org/2000/svg">
<path d="M2.23102 5.42026e-07C1.9828 -0.000187454 1.73697 0.0485298 1.50757 0.14337C1.27818 0.238209 1.06972 0.377313 0.894097 0.552736C0.718475 0.728158 0.579135 0.936461 0.484034 1.16575C0.388934 1.39503 0.339938 1.64081 0.339844 1.88903C0.339844 2.93372 1.18633 3.79953 2.22888 3.79953C3.27285 3.79953 4.12005 2.93373 4.12005 1.89046C4.12024 1.64227 4.07152 1.39648 3.97667 1.16712C3.88182 0.93777 3.74271 0.729356 3.56728 0.553791C3.39184 0.378227 3.18354 0.238953 2.95425 0.143931C2.72497 0.048909 2.47921 4.70804e-07 2.23102 5.42026e-07ZM11.4558 5.0088C9.86801 5.0088 8.95998 5.83883 8.5235 6.66456H8.47771V5.23133H5.34864V15.7419H8.60937V10.5392C8.60937 9.16825 8.71241 7.84306 10.409 7.84306C12.0812 7.84306 12.1055 9.40652 12.1055 10.6258V15.7419H15.3662V9.96894C15.3662 7.14398 14.7587 5.0088 11.4558 5.0088ZM0.599586 5.23062V15.7419H3.86246V5.23062H0.599586Z" fill="white"/>
</svg>
