<svg width="16" height="19" viewBox="0 0 16 19" fill="none" xmlns="http://www.w3.org/2000/svg">
<path d="M8.00036 0C6.01455 0 4.38454 1.64715 4.38454 3.65385V4.38462H0.813559L0.768723 5.07008L0.0455595 18.2239L0 19H16L15.9552 18.2232L15.232 5.06935L15.1864 4.38462H11.6162V3.65385C11.6162 1.64715 9.98617 0 8.00036 0ZM8.00036 1.46154C8.57575 1.46154 9.12757 1.69251 9.53442 2.10365C9.94128 2.51479 10.1699 3.07241 10.1699 3.65385V4.38462H5.83087V3.65385C5.83087 3.07241 6.05944 2.51479 6.4663 2.10365C6.87316 1.69251 7.42498 1.46154 8.00036 1.46154ZM2.16949 5.84615H4.38454V8.03846H5.83087V5.84615H10.1699V8.03846H11.6162V5.84615H13.8312L14.464 17.5385H1.53745L2.16949 5.84615Z" fill="#393280"/>
</svg>
