<svg width="18" height="14" viewBox="0 0 18 14" fill="none" xmlns="http://www.w3.org/2000/svg">
<path d="M17.4718 1.65597C16.8288 1.94063 16.1467 2.12708 15.4483 2.20909C16.1836 1.7688 16.7339 1.07638 16.9967 0.260666C16.3052 0.670483 15.5491 0.959862 14.7607 1.11645C14.2776 0.600084 13.6504 0.240986 12.9606 0.0858518C12.2708 -0.0692824 11.5502 -0.0132744 10.8926 0.246593C10.2351 0.50646 9.67088 0.958163 9.27346 1.54297C8.87604 2.12777 8.66376 2.81862 8.66424 3.52569C8.66424 3.8026 8.695 4.07093 8.75726 4.32781C7.35588 4.25883 5.98476 3.89534 4.73325 3.26102C3.48175 2.6267 2.37795 1.73579 1.49378 0.646343C1.17964 1.18408 1.01487 1.79597 1.01652 2.41874C1.01652 3.64017 1.63689 4.71921 2.58427 5.35103C2.02469 5.33328 1.47751 5.18164 0.988611 4.90883V4.95391C0.988127 5.76761 1.26941 6.55637 1.78466 7.18614C2.29991 7.81592 3.01733 8.24786 3.815 8.40855C3.29628 8.5508 2.7518 8.57186 2.22364 8.47009C2.44861 9.1701 2.88662 9.78237 3.47647 10.2214C4.06632 10.6604 4.77856 10.9041 5.5137 10.9187C4.78288 11.4923 3.9461 11.9162 3.05127 12.166C2.15643 12.4159 1.22111 12.4868 0.298828 12.3748C1.90917 13.4111 3.78405 13.9614 5.69903 13.9597C12.1804 13.9597 15.7252 8.5903 15.7252 3.93355C15.7252 3.78328 15.7195 3.62872 15.7138 3.47774C16.4025 2.97905 16.9977 2.36255 17.4718 1.65669V1.65597Z" fill="white"/>
</svg>
