<svg width="17" height="19" viewBox="0 0 17 19" fill="none" xmlns="http://www.w3.org/2000/svg">
<path d="M8.5 0C5.22325 0 2.55 2.71614 2.55 6.04545C2.55 8.12682 3.5955 9.975 5.1799 11.0658C2.14795 12.3871 0 15.4444 0 19H1.7C1.7 15.1741 4.7345 12.0909 8.5 12.0909C12.2655 12.0909 15.3 15.1741 15.3 19H17C17 15.4444 14.8521 12.388 11.8201 11.0649C12.6287 10.5103 13.2913 9.76271 13.7498 8.88767C14.2082 8.01263 14.4487 7.03676 14.45 6.04545C14.45 2.71614 11.7768 0 8.5 0ZM8.5 1.72727C10.857 1.72727 12.75 3.65059 12.75 6.04545C12.75 8.44032 10.857 10.3636 8.5 10.3636C6.14295 10.3636 4.25 8.44032 4.25 6.04545C4.25 3.65059 6.14295 1.72727 8.5 1.72727Z" fill="#393280"/>
</svg>
